<svg width="16" height="16" viewBox="0 0 16 16" fill="none" xmlns="http://www.w3.org/2000/svg">
<path d="M5.27709 7.915C5.27709 6.45794 6.45794 5.27645 7.915 5.27645C9.37206 5.27645 10.5535 6.45794 10.5535 7.915C10.5535 9.37206 9.37206 10.5535 7.915 10.5535C6.45794 10.5535 5.27709 9.37206 5.27709 7.915ZM3.85074 7.915C3.85074 10.1597 5.67031 11.9793 7.915 11.9793C10.1597 11.9793 11.9793 10.1597 11.9793 7.915C11.9793 5.67031 10.1597 3.85074 7.915 3.85074C5.67031 3.85074 3.85081 5.67018 3.85081 7.915M11.1904 3.68959C11.1903 3.87745 11.246 4.0611 11.3503 4.21734C11.4546 4.37357 11.6029 4.49537 11.7764 4.56733C11.9499 4.63929 12.1409 4.65817 12.3251 4.6216C12.5094 4.58502 12.6787 4.49463 12.8116 4.36185C12.9444 4.22907 13.035 4.05987 13.0717 3.87564C13.1084 3.69141 13.0897 3.50043 13.0179 3.32685C12.946 3.15327 12.8244 3.00488 12.6682 2.90045C12.5121 2.79603 12.3285 2.74025 12.1406 2.74017H12.1402C11.8884 2.74029 11.647 2.84034 11.4689 3.01836C11.2908 3.19637 11.1906 3.43779 11.1904 3.68959ZM4.71734 14.3577C3.94566 14.3225 3.52623 14.194 3.24749 14.0854C2.87796 13.9415 2.61429 13.7702 2.33708 13.4934C2.05986 13.2165 1.88827 12.9531 1.74504 12.5836C1.63638 12.305 1.50784 11.8854 1.47276 11.1137C1.43439 10.2794 1.42673 10.0288 1.42673 7.91513C1.42673 5.80144 1.43502 5.55152 1.47276 4.71652C1.5079 3.94484 1.63739 3.5261 1.74504 3.24667C1.8889 2.87713 2.06024 2.61347 2.33708 2.33625C2.61391 2.05904 2.87732 1.88744 3.24749 1.74421C3.5261 1.63556 3.94566 1.50702 4.71734 1.47194C5.55164 1.43356 5.80227 1.4259 7.915 1.4259C10.0277 1.4259 10.2786 1.43407 11.1136 1.47206C11.8853 1.50721 12.304 1.6367 12.5835 1.74434C12.953 1.88757 13.2167 2.05955 13.4939 2.33638C13.7711 2.61322 13.942 2.87726 14.0859 3.2468C14.1946 3.5254 14.3231 3.94496 14.3582 4.71664C14.3966 5.55164 14.4042 5.80157 14.4042 7.91525C14.4042 10.0289 14.3966 10.2789 14.3582 11.1139C14.323 11.8855 14.1939 12.305 14.0859 12.5837C13.942 12.9532 13.7707 13.2169 13.4939 13.4935C13.217 13.7701 12.953 13.9417 12.5835 14.0855C12.3048 14.1942 11.8853 14.3227 11.1136 14.3578C10.2793 14.3962 10.0287 14.4038 7.915 14.4038C5.80132 14.4038 5.55139 14.3962 4.71734 14.3578M4.6518 0.0479333C3.8092 0.0863052 3.23344 0.21991 2.73061 0.415569C2.21018 0.617623 1.76903 0.888696 1.32852 1.32852C0.888 1.76834 0.617623 2.20955 0.415569 2.73061C0.21991 3.23375 0.0863052 3.8092 0.0479333 4.6518C0.00892817 5.49573 0 5.76554 0 7.915C0 10.0645 0.00892817 10.3343 0.0479333 11.1782C0.0863052 12.0209 0.21991 12.5962 0.415569 13.0994C0.617623 13.6198 0.888063 14.0619 1.32852 14.5015C1.76897 14.9411 2.20955 15.2118 2.73061 15.4144C3.23439 15.6101 3.8092 15.7437 4.6518 15.7821C5.49618 15.8204 5.76554 15.83 7.915 15.83C10.0645 15.83 10.3343 15.8211 11.1782 15.7821C12.0209 15.7437 12.5962 15.6101 13.0994 15.4144C13.6198 15.2118 14.061 14.9413 14.5015 14.5015C14.942 14.0617 15.2118 13.6198 15.4144 13.0994C15.6101 12.5962 15.7443 12.0208 15.7821 11.1782C15.8204 10.3336 15.8294 10.0645 15.8294 7.915C15.8294 5.76554 15.8204 5.49573 15.7821 4.6518C15.7437 3.80914 15.6101 3.23344 15.4144 2.73061C15.2118 2.21018 14.9413 1.76903 14.5015 1.32852C14.0617 0.888 13.6198 0.617623 13.1 0.415569C12.5962 0.21991 12.0208 0.085672 11.1788 0.0479333C10.3348 0.00937141 10.0651 0 7.91595 0C5.76681 0 5.49649 0.00892817 4.65212 0.0479333" fill="white"/>
</svg>
