<svg width="385" height="276" viewBox="0 0 385 276" fill="none" xmlns="http://www.w3.org/2000/svg">
<path fill-rule="evenodd" clip-rule="evenodd" d="M225.589 20.3587C225.589 21.7216 225.394 23.0845 225.005 24.2527C222.475 31.846 229.287 30.6777 228.703 22.5003C226.757 -1.44786 191.527 -2.81066 174.398 2.64095C148.9 11.0131 126.516 31.0672 119.12 57.3517C115.811 70.0073 115.616 82.8576 123.986 93.7608C121.845 102.328 121.261 110.894 121.845 119.267C123.791 128.612 126.127 121.214 124.959 119.267C123.986 111.284 123.402 103.69 125.348 95.9024C142.866 110.31 158.048 103.496 172.841 92.3979C155.518 111.868 138.195 141.852 105.884 140.878C69.2917 137.374 63.0631 80.7158 101.408 60.8563C109.777 56.5729 105.3 53.0684 99.6558 57.1571C27.0545 105.832 115.616 210.386 182.768 90.6455C191.721 78.7688 200.285 66.6974 209.239 54.8207C212.353 50.732 203.984 50.3426 201.453 53.8472C187.828 74.8748 155.129 119.461 126.516 93.1767C135.47 44.6963 201.064 46.838 238.435 46.4486C193.084 68.4497 183.741 121.603 149.289 151.782C81.3595 139.515 90.1183 188.969 152.404 155.481C192.889 160.738 237.657 173.783 270.94 141.462C282.035 128.223 287.68 113.231 283.397 95.7078C280.478 82.0787 275.028 86.7516 279.699 95.1237C292.156 137.374 246.416 166.968 156.88 153.339C202.037 121.603 202.232 53.8472 262.765 40.2181C270.94 37.8817 269.578 35.9347 266.658 35.9347C265.49 35.9347 264.128 36.5187 262.96 37.1028C211.964 60.0775 156.491 10.2343 124.375 89.2827C113.086 44.891 172.646 -2.22663 208.266 4.39318C218.582 6.53489 224.421 11.9865 225.589 20.3587ZM145.786 154.313C100.629 145.551 90.8969 172.809 128.852 162.49C135.47 160.738 141.698 157.817 145.786 154.313Z" fill="white"/>
<path d="M0 258.283H7.78566C7.98031 261.787 9.3428 264.708 12.0678 267.044C14.7928 269.381 18.6856 270.549 23.9409 270.549C28.807 270.549 32.6998 269.381 35.6194 267.044C38.539 264.708 39.9015 261.787 39.9015 258.477C39.9015 255.946 38.9283 253.804 37.1765 252.052C35.4248 250.3 32.8944 248.937 29.3909 247.963C14.7928 243.68 6.61782 240.565 4.86604 238.618C3.11427 236.671 2.3357 234.14 2.3357 230.83C2.3357 226.352 4.28212 222.652 8.36959 219.537C12.4571 216.422 17.7124 214.864 24.3302 214.864C30.3641 214.864 35.4248 216.227 39.5122 219.148C43.5997 222.068 45.5461 225.962 45.7408 230.635H37.9551C37.7605 227.325 36.2033 224.794 33.673 222.847C31.1427 220.9 27.6391 220.121 23.5516 220.121C19.4642 220.121 16.1553 221.095 13.8196 223.042C11.4839 224.989 10.1214 227.52 10.1214 230.83C10.1214 233.556 11.0946 235.697 13.2356 237.06C15.3767 238.423 19.4642 239.786 25.4981 241.149C34.2569 243.096 40.0962 245.432 43.2104 248.158C46.1301 251.079 47.6872 254.389 47.6872 258.477C47.6872 263.539 45.3515 267.628 40.8747 270.743C36.398 273.859 30.7534 275.611 23.9409 275.611C17.1285 275.611 11.2892 274.053 6.61782 270.743C2.14106 267.628 0 263.539 0 258.283ZM51.1907 274.832L84.8637 216.033H93.428L126.906 274.832H118.537L107.442 255.167H70.6549L59.5603 274.832H51.1907ZM73.7692 249.716H104.133L88.9512 222.847L73.7692 249.716ZM138.001 274.832V221.289H120.289V216.033H163.499V221.289H145.787V274.832H138.001ZM172.258 216.033H180.043V251.857C180.043 258.283 181.601 263.15 184.91 266.071C188.218 268.991 192.89 270.549 198.924 270.549C204.763 270.549 209.434 269.186 212.743 266.071C216.052 262.955 217.804 258.283 217.804 251.663V216.033H225.59V251.857C225.59 260.035 223.059 266.071 218.388 270.159C213.522 274.053 207.099 276 198.924 276C190.554 276 184.131 274.053 179.265 270.159C174.399 266.265 172.063 260.23 172.258 252.052V216.033ZM240.966 274.832V216.033H262.766C273.082 216.033 280.868 217.785 285.929 221.289C290.989 224.794 293.52 229.467 293.714 235.308C293.714 240.175 291.573 244.264 287.291 247.574C283.009 250.884 277.559 252.636 270.746 253.026L292.546 275.027H283.009L256.538 248.353H262.766C270.552 248.353 276.391 247.185 280.089 244.848C283.787 242.512 285.734 239.202 285.929 234.919C285.929 230.83 283.982 227.52 280.089 225.183C276.196 222.847 270.357 221.679 262.766 221.484H248.752V275.027H240.966V274.832ZM298.191 274.832L331.864 216.033H340.428L373.907 274.832H365.537L354.442 255.167H318.044L306.95 274.832H298.191ZM320.964 249.716H351.328L336.146 222.847L320.964 249.716Z" fill="white"/>
<path fill-rule="evenodd" clip-rule="evenodd" d="M351.912 203.183C351.912 212.139 359.308 219.538 368.262 219.538C377.41 219.538 384.612 212.139 384.612 203.183C384.612 194.227 377.41 186.828 368.262 186.828C359.114 186.828 351.912 194.227 351.912 203.183ZM354.832 203.183C354.832 195.395 360.866 189.164 368.067 189.164C375.464 189.164 381.303 195.395 381.303 203.183C381.303 210.776 375.464 217.201 368.067 217.201C360.866 217.201 354.832 210.971 354.832 203.183ZM362.228 211.165H365.342V204.351H367.873C371.376 204.351 371.376 205.908 371.571 207.466C371.571 210.192 371.571 210.581 372.155 211.165H375.269C374.685 210.192 374.685 209.803 374.685 207.271C374.685 205.714 374.491 203.767 372.349 203.377C374.88 202.404 375.074 200.846 375.074 199.678C375.074 195.395 371.376 195.005 369.624 195.005H362.423V211.165H362.228ZM365.342 197.147H368.457C370.403 197.147 371.766 197.731 371.766 199.678C371.766 200.846 371.376 202.209 368.846 202.209H365.342V197.147Z" fill="white"/>
</svg>
